<svg width="20" height="20" viewBox="0 0 20 20" fill="none" xmlns="http://www.w3.org/2000/svg">
<circle opacity="0.3" r="7.08333" transform="matrix(-1 0 0 1 10 10)" stroke="white" stroke-width="2.5"/>
<mask id="path-3-inside-1" fill="white">
<path d="M18.3333 10C18.3333 8.86158 18.1001 7.73522 17.6479 6.69043C17.1958 5.64564 16.5344 4.70456 15.7045 3.92526C14.8747 3.14596 13.8939 2.54495 12.8228 2.15932C11.7517 1.7737 10.6129 1.61163 9.47674 1.68311L9.63371 4.17818C10.429 4.12814 11.2262 4.24159 11.976 4.51153C12.7257 4.78147 13.4123 5.20217 13.9932 5.74768C14.5741 6.29319 15.0371 6.95195 15.3536 7.6833C15.67 8.41466 15.8333 9.2031 15.8333 10H18.3333Z"/>
</mask>
<path d="M18.3333 10C18.3333 8.86158 18.1001 7.73522 17.6479 6.69043C17.1958 5.64564 16.5344 4.70456 15.7045 3.92526C14.8747 3.14596 13.8939 2.54495 12.8228 2.15932C11.7517 1.7737 10.6129 1.61163 9.47674 1.68311L9.63371 4.17818C10.429 4.12814 11.2262 4.24159 11.976 4.51153C12.7257 4.78147 13.4123 5.20217 13.9932 5.74768C14.5741 6.29319 15.0371 6.95195 15.3536 7.6833C15.67 8.41466 15.8333 9.2031 15.8333 10H18.3333Z" stroke="white" stroke-width="6" mask="url(#path-3-inside-1)"/>
</svg>
